<?xml version="1.0" encoding="utf-8"?>
<!-- Generator: Adobe Illustrator 26.3.1, SVG Export Plug-In . SVG Version: 6.00 Build 0)  -->
<svg version="1.1" id="Livello_1" xmlns="http://www.w3.org/2000/svg" xmlns:xlink="http://www.w3.org/1999/xlink" x="0px" y="0px"
	 viewBox="0 0 48 48" style="enable-background:new 0 0 48 48;" xml:space="preserve">
<style type="text/css">
	.st0{fill:#A0C519;}
</style>
<g>
	<g id="Background">
	</g>
	<path class="st0" d="M28.3,44.8h-6.8v-1.2c0-3.8,0-7.6,0-11.5c0-5,4.3-9.9,9.3-10.2c4.6-0.3,9.1-0.1,13.8-0.1v6.6c-0.5,0-1,0-1.5,0
		c-3.4,0-6.9,0-10.3,0c-2.6,0-4.5,2-4.4,4.4c0.1,3.6,0,7.2,0,10.8V44.8z"/>
	<path class="st0" d="M2.4,27v-6.8h2.1c3.3,0,6.6-0.1,9.9,0c2.4,0.1,4.5-2,4.5-4.5c-0.1-3.9,0-7.8,0-11.8h6.8v1.3c0,3.5,0,7,0,10.6
		c0,5.2-3.1,9.4-8.1,10.8C16.7,26.9,15.8,27,15,27C10.8,27.1,6.6,27,2.4,27"/>
</g>
</svg>
